<svg id="Layer_1" data-name="Layer 1" xmlns="http://www.w3.org/2000/svg" xmlns:xlink="http://www.w3.org/1999/xlink" viewBox="0 0 79.49 59.33"><defs><style>.cls-1{fill:url(#linear-gradient);}.cls-2{fill:url(#linear-gradient-2);}.cls-3{fill:url(#linear-gradient-3);}.cls-4{fill:url(#linear-gradient-4);}.cls-5{fill:url(#linear-gradient-5);}.cls-6{fill:url(#linear-gradient-6);}.cls-7{fill:#fff;}</style><linearGradient id="linear-gradient" y1="29.66" x2="79.49" y2="29.66" gradientUnits="userSpaceOnUse"><stop offset="0" stop-color="#3a3b4f"/><stop offset="1" stop-color="#525463"/></linearGradient><linearGradient id="linear-gradient-2" x1="210.22" y1="227.02" x2="289.71" y2="227.02" gradientUnits="userSpaceOnUse"><stop offset="0" stop-color="#f04f48"/><stop offset="1" stop-color="#a0489e"/></linearGradient><linearGradient id="linear-gradient-3" x1="217.58" y1="255.91" x2="244.73" y2="255.91" gradientTransform="translate(438.76 -19.45) rotate(79.1)" gradientUnits="userSpaceOnUse"><stop offset="0" stop-color="#2d2f3d"/><stop offset="1" stop-color="#3e404e"/></linearGradient><linearGradient id="linear-gradient-4" x1="249.59" y1="248.54" x2="281.35" y2="248.54" gradientUnits="userSpaceOnUse"><stop offset="0" stop-color="#3e404e"/><stop offset="1" stop-color="#2d2f3d"/></linearGradient><linearGradient id="linear-gradient-5" x1="249.59" y1="257.46" x2="281.35" y2="257.46" xlink:href="#linear-gradient-4"/><linearGradient id="linear-gradient-6" x1="249.59" y1="266.38" x2="281.35" y2="266.38" xlink:href="#linear-gradient-4"/></defs><rect class="cls-1" width="79.49" height="59.33" rx="7.37"/><path class="cls-2" d="M289.71,227.6v6.21H210.22V227.6a7.35,7.35,0,0,1,7.36-7.36h64.76A7.36,7.36,0,0,1,289.71,227.6Z" transform="translate(-210.22 -220.24)"/><circle class="cls-3" cx="231.16" cy="255.91" r="13.57" transform="translate(-274.05 214.29) rotate(-79.1)"/><path class="cls-4" d="M278.85,251H252.09a2.5,2.5,0,0,1,0-5h26.76a2.5,2.5,0,0,1,0,5Z" transform="translate(-210.22 -220.24)"/><path class="cls-5" d="M278.85,260H252.09a2.5,2.5,0,1,1,0-5h26.76a2.5,2.5,0,1,1,0,5Z" transform="translate(-210.22 -220.24)"/><path class="cls-6" d="M278.85,268.88H252.09a2.5,2.5,0,0,1,0-5h26.76a2.5,2.5,0,0,1,0,5Z" transform="translate(-210.22 -220.24)"/><path class="cls-7" d="M235.4,260.36a3.56,3.56,0,0,1-1.45,1.31,5.32,5.32,0,0,1-2.27.57v1.39h-1.1v-1.41a5.08,5.08,0,0,1-3-1.1,3.33,3.33,0,0,1-1.19-2.56h3.13a1.43,1.43,0,0,0,1,1.33v-2.73a16.6,16.6,0,0,1-2.15-.67,3.58,3.58,0,0,1-1.41-1.05,3,3,0,0,1-.6-2,3.12,3.12,0,0,1,1.16-2.52,5.18,5.18,0,0,1,3-1.06v-1.4h1.1v1.4a4.76,4.76,0,0,1,2.86,1,3.51,3.51,0,0,1,1.18,2.53h-3.16a1.3,1.3,0,0,0-.88-1.2v2.67c.95.27,1.69.5,2.21.71a3.66,3.66,0,0,1,1.39,1,2.91,2.91,0,0,1,.61,2A3.23,3.23,0,0,1,235.4,260.36ZM229.81,254a2.21,2.21,0,0,0,.77.52v-2.4a1.33,1.33,0,0,0-.76.37,1.06,1.06,0,0,0-.28.79A1,1,0,0,0,229.81,254Zm2.69,5.49a1.16,1.16,0,0,0,.3-.81,1,1,0,0,0-.28-.74,2.36,2.36,0,0,0-.84-.49v2.45A1.37,1.37,0,0,0,232.5,259.53Z" transform="translate(-210.22 -220.24)"/><circle class="cls-7" cx="8.01" cy="7.11" r="2.33"/><circle class="cls-7" cx="14.73" cy="7.11" r="2.33"/><circle class="cls-7" cx="21.45" cy="7.11" r="2.33"/></svg>