<svg id="Layer_1" data-name="Layer 1" xmlns="http://www.w3.org/2000/svg" xmlns:xlink="http://www.w3.org/1999/xlink" viewBox="0 0 28.99 28.99"><defs><style>.cls-1{fill:url(#linear-gradient);}.cls-2{fill:url(#linear-gradient-2);}.cls-3{fill:#fff;}</style><linearGradient id="linear-gradient" x1="-178.69" y1="648.31" x2="-149.7" y2="648.31" gradientTransform="translate(472.66 -380.74) rotate(5.24)" gradientUnits="userSpaceOnUse"><stop offset="0" stop-color="#f7941d"/><stop offset="1" stop-color="#ff5037"/></linearGradient><linearGradient id="linear-gradient-2" x1="238.37" y1="249.9" x2="261.56" y2="249.9" gradientUnits="userSpaceOnUse"><stop offset="0" stop-color="#fbb03b"/><stop offset="1" stop-color="#f7941d"/></linearGradient></defs><circle class="cls-1" cx="249.96" cy="249.9" r="14.5" transform="translate(-250.49 -219.41) rotate(-3.56)"/><path class="cls-2" d="M238.37,249.56a11.59,11.59,0,1,1,11.25,11.93A11.6,11.6,0,0,1,238.37,249.56Z" transform="translate(-235.47 -235.4)"/><path class="cls-3" d="M253.47,249.54c.2.09.37.16.54.25a2.53,2.53,0,0,1,1.41,2.27,3,3,0,0,1-2.84,3.3c-.32.06-.65.08-1,.12,0,.38,0,.75,0,1.15l-1.89-.05c0-.37,0-.76,0-1.15l-1.42,0,0,1.15-1.89-.05,0-1.17-2-.06c0-.64,0-1.25.06-1.88l1.34,0c.07-2.42.14-4.8.22-7.21l-1.35,0c0-.65,0-1.26.06-1.9l2,.06,0-1.17,1.89.06c0,.37,0,.75,0,1.15l1.41,0,0-1.15,1.9.06c0,.38,0,.77,0,1.13.5.11,1,.18,1.42.32a2.53,2.53,0,0,1,1.3,3.86,4.57,4.57,0,0,1-.91.78A1.57,1.57,0,0,1,253.47,249.54Zm-5.13,4c1.15,0,2.28,0,3.4,0a1.17,1.17,0,0,0,1.07-.77,1.5,1.5,0,0,0-1.13-2.12l-.35-.05-2.77-.08-.13,0C248.4,251.49,248.37,252.47,248.34,253.52Zm.14-4.71c1,0,2,.1,2.92.07a1.24,1.24,0,0,0,.12-2.47l-.35,0-2.47-.08-.15,0C248.53,247.14,248.5,248,248.48,248.81Z" transform="translate(-235.47 -235.4)"/></svg>