<svg id="Layer_1" data-name="Layer 1" xmlns="http://www.w3.org/2000/svg" xmlns:xlink="http://www.w3.org/1999/xlink" viewBox="0 0 68.37 70.29"><defs><style>.cls-1{fill:url(#linear-gradient);}.cls-2{fill:url(#linear-gradient-2);}.cls-3{fill:url(#linear-gradient-3);}.cls-4{fill:#fff;}</style><linearGradient id="linear-gradient" x1="267.92" y1="226.98" x2="284.03" y2="226.98" gradientUnits="userSpaceOnUse"><stop offset="0" stop-color="#fc672e" stop-opacity="0.4"/><stop offset="1" stop-color="#2d2f3d"/></linearGradient><linearGradient id="linear-gradient-2" x1="215.8" y1="271.81" x2="233.45" y2="271.81" gradientUnits="userSpaceOnUse"><stop offset="0" stop-color="#2d2f3d"/><stop offset="1" stop-color="#fc672e" stop-opacity="0.4"/></linearGradient><linearGradient id="linear-gradient-3" x1="215.78" y1="249.41" x2="284.15" y2="249.41" gradientUnits="userSpaceOnUse"><stop offset="0" stop-color="#3e404e"/><stop offset="1" stop-color="#525463"/></linearGradient></defs><path class="cls-1" d="M267.92,232.19V214.36s15.2-3.45,16.11,6.79l-5.73,19Z" transform="translate(-215.78 -213.8)"/><path class="cls-2" d="M228.09,264l5.36,17S220,288.89,216,279.4l-.24-19.86Z" transform="translate(-215.78 -213.8)"/><path class="cls-3" d="M215.78,277.68l.53-46.69h57.88c8.1,0,9.84-9.84,9.84-9.84l.12,47.75-30.86-1.07H225.62a9.84,9.84,0,0,0-9.84,9.85h0" transform="translate(-215.78 -213.8)"/><path class="cls-4" d="M254.67,248.2c.3.14.57.25.83.39a3.86,3.86,0,0,1,2.15,3.47c.11,2.74-1.48,4.57-4.35,5.05-.49.09-1,.13-1.52.19,0,.57,0,1.15-.05,1.76l-2.89-.08c0-.57,0-1.16,0-1.76l-2.17-.07c0,.6,0,1.17-.05,1.77l-2.89-.08c0-.58,0-1.16.05-1.79l-3.05-.09c0-1,.06-1.91.09-2.88l2.06.06c.11-3.7.21-7.35.32-11L241.2,243c0-1,.05-1.92.08-2.89l3,.08c0-.61,0-1.19.05-1.79l2.89.09c0,.57,0,1.15-.05,1.76l2.15.06c0-.57,0-1.15.05-1.75l2.91.08c0,.59,0,1.18-.05,1.73.76.17,1.48.27,2.16.49a3.88,3.88,0,0,1,2,5.92A7.39,7.39,0,0,1,255,248,1.9,1.9,0,0,1,254.67,248.2Zm-7.85,6.09c1.75,0,3.48,0,5.2,0a1.79,1.79,0,0,0,1.64-1.17,2.28,2.28,0,0,0-1.73-3.24,3.35,3.35,0,0,0-.54-.08l-4.25-.13-.19,0C246.91,251.19,246.86,252.68,246.82,254.29Zm.21-7.21c1.51,0,3,.15,4.47.11a1.9,1.9,0,0,0,.19-3.78,3.35,3.35,0,0,0-.54-.08l-3.79-.13a2.07,2.07,0,0,0-.22,0C247.1,244.52,247.06,245.78,247,247.08Z" transform="translate(-215.78 -213.8)"/></svg>