<svg id="Layer_1" data-name="Layer 1" xmlns="http://www.w3.org/2000/svg" xmlns:xlink="http://www.w3.org/1999/xlink" viewBox="0 0 80.67 60.71"><defs><style>.cls-1{fill:url(#linear-gradient);}.cls-2,.cls-3,.cls-4{opacity:0.45;}.cls-2{fill:url(#linear-gradient-2);}.cls-3{fill:url(#linear-gradient-3);}.cls-4{fill:url(#linear-gradient-4);}.cls-5{fill:url(#linear-gradient-5);}</style><linearGradient id="linear-gradient" x1="259.39" y1="290.53" x2="243.54" y2="267.54" gradientUnits="userSpaceOnUse"><stop offset="0" stop-color="#3e404e"/><stop offset="1" stop-color="#343644"/></linearGradient><linearGradient id="linear-gradient-2" x1="19.95" y1="49.91" x2="10.82" y2="36.66" gradientUnits="userSpaceOnUse"><stop offset="0" stop-color="#525463" stop-opacity="0.3"/><stop offset="1" stop-color="#5a41eb"/></linearGradient><linearGradient id="linear-gradient-3" x1="46.21" y1="45.57" x2="32.76" y2="26.06" xlink:href="#linear-gradient-2"/><linearGradient id="linear-gradient-4" x1="72.07" y1="41.91" x2="54.97" y2="17.13" xlink:href="#linear-gradient-2"/><linearGradient id="linear-gradient-5" x1="216.94" y1="250.5" x2="277.55" y2="252.28" gradientUnits="userSpaceOnUse"><stop offset="0" stop-color="#8345be"/><stop offset="1" stop-color="#5a41eb"/></linearGradient></defs><path class="cls-1" d="M286.9,280.26H213a3.4,3.4,0,0,1-3.4-3.4h0a3.4,3.4,0,0,1,3.4-3.4H286.9a3.4,3.4,0,0,1,3.4,3.4h0A3.41,3.41,0,0,1,286.9,280.26Z" transform="translate(-209.63 -219.54)"/><rect class="cls-2" x="7.64" y="29.72" width="13.76" height="24.62"/><rect class="cls-3" x="31.33" y="13.59" width="13.76" height="40.76"/><rect class="cls-4" x="55.02" width="13.76" height="54.34"/><path class="cls-5" d="M219.69,262a3,3,0,0,1-1.46-5.61l21.88-12.25a3,3,0,0,1,4,1l6,9.29,23.2-13.18a3,3,0,1,1,3,5.22L250.63,261a3,3,0,0,1-4-1l-6-9.3-19.43,10.87A3,3,0,0,1,219.69,262Z" transform="translate(-209.63 -219.54)"/></svg>