<svg id="Layer_1" data-name="Layer 1" xmlns="http://www.w3.org/2000/svg" xmlns:xlink="http://www.w3.org/1999/xlink" viewBox="0 0 28.63 36.97"><defs><style>.cls-1{fill:url(#linear-gradient);}.cls-2{fill:#fff;}</style><linearGradient id="linear-gradient" x1="235.78" y1="249.39" x2="264.4" y2="250.23" gradientUnits="userSpaceOnUse"><stop offset="0" stop-color="#8345be"/><stop offset="1" stop-color="#5a41eb"/></linearGradient></defs><path class="cls-1" d="M262.28,247.23c-2.3-3.9-6.14-7.14-9.16-10.42l3.39-5.4H243.78l3.39,5.4c-5,5.16-11.52,9.26-11.52,17.26a14.32,14.32,0,0,0,28.63,0A13.33,13.33,0,0,0,262.28,247.23Z" transform="translate(-235.65 -231.41)"/><path class="cls-2" d="M254.78,257.71a4.19,4.19,0,0,1-1.67,1.52,6,6,0,0,1-2.63.65v1.62H249.2v-1.64a6,6,0,0,1-3.42-1.27,3.85,3.85,0,0,1-1.38-3H248a1.62,1.62,0,0,0,1.16,1.53V254a21,21,0,0,1-2.49-.78,4.25,4.25,0,0,1-1.63-1.22,3.47,3.47,0,0,1-.7-2.3,3.58,3.58,0,0,1,1.35-2.92,6,6,0,0,1,3.47-1.24v-1.62h1.28v1.62a5.65,5.65,0,0,1,3.32,1.22,4.12,4.12,0,0,1,1.35,2.94H251.5a1.52,1.52,0,0,0-1-1.4v3.1c1.1.31,2,.58,2.56.82a4.12,4.12,0,0,1,1.61,1.19,3.39,3.39,0,0,1,.7,2.27A3.76,3.76,0,0,1,254.78,257.71Zm-6.47-7.32a2.57,2.57,0,0,0,.89.6v-2.78a1.56,1.56,0,0,0-.88.43,1.26,1.26,0,0,0-.32.91A1.2,1.2,0,0,0,248.31,250.39Zm3.12,6.36a1.37,1.37,0,0,0,.35-.94,1.15,1.15,0,0,0-.33-.85,2.76,2.76,0,0,0-1-.57v2.84A1.66,1.66,0,0,0,251.43,256.75Z" transform="translate(-235.65 -231.41)"/></svg>