<svg id="Layer_1" data-name="Layer 1" xmlns="http://www.w3.org/2000/svg" xmlns:xlink="http://www.w3.org/1999/xlink" viewBox="0 0 40.17 40.17"><defs><style>.cls-1{fill:url(#linear-gradient);}.cls-2{fill:url(#linear-gradient-2);}.cls-3{fill:url(#linear-gradient-3);}.cls-4{fill:#fac2b0;}.cls-5{fill:url(#radial-gradient);}.cls-6{fill:url(#linear-gradient-4);}.cls-7{fill:url(#linear-gradient-5);}.cls-8{fill:none;}</style><linearGradient id="linear-gradient" x1="19.1" y1="36" x2="59.26" y2="36" gradientTransform="translate(0.06 -0.07) rotate(0.1)" gradientUnits="userSpaceOnUse"><stop offset="0" stop-color="#88ff90"/><stop offset="0.26" stop-color="#85d62f"/><stop offset="1" stop-color="#39b54a"/></linearGradient><linearGradient id="linear-gradient-2" x1="39.18" y1="19.02" x2="39.18" y2="48.76" gradientUnits="userSpaceOnUse"><stop offset="0" stop-color="#494b59"/><stop offset="1" stop-color="#2d2f3d"/></linearGradient><linearGradient id="linear-gradient-3" x1="25.74" y1="48.62" x2="52.61" y2="48.62" gradientTransform="matrix(1, 0, 0, 1, 0, 0)" xlink:href="#linear-gradient"/><radialGradient id="radial-gradient" cx="39.17" cy="39.33" r="5.25" gradientTransform="translate(0 12.27) scale(1 0.69)" gradientUnits="userSpaceOnUse"><stop offset="0" stop-color="#efa692"/><stop offset="0.12" stop-color="#efa692" stop-opacity="0.98"/><stop offset="0.27" stop-color="#f1a693" stop-opacity="0.92"/><stop offset="0.43" stop-color="#f3a695" stop-opacity="0.81"/><stop offset="0.6" stop-color="#f6a697" stop-opacity="0.67"/><stop offset="0.77" stop-color="#f9a69a" stop-opacity="0.49"/><stop offset="0.95" stop-color="#fea69e" stop-opacity="0.26"/><stop offset="1" stop-color="#ffa69f" stop-opacity="0.2"/></radialGradient><linearGradient id="linear-gradient-4" x1="32.54" y1="26.39" x2="45.78" y2="26.39" gradientUnits="userSpaceOnUse"><stop offset="0" stop-color="#2d2f3d"/><stop offset="1" stop-color="#1f2028"/></linearGradient><linearGradient id="linear-gradient-5" x1="32.05" y1="45.37" x2="46.29" y2="45.37" xlink:href="#linear-gradient-4"/></defs><circle class="cls-1" cx="39.18" cy="36" r="20.08" transform="translate(-19.16 -15.85) rotate(-0.1)"/><path class="cls-2" d="M55.92,36A16.74,16.74,0,1,1,39.18,19.26,16.68,16.68,0,0,1,55.92,36Z" transform="translate(-19.1 -15.92)"/><path class="cls-3" d="M52.61,47.32a17.61,17.61,0,0,1-26.87,0l.07,0,5.36-2.76a9.59,9.59,0,0,0,.88-.51l.44-.3a8.65,8.65,0,0,0,6.64,3h.08a8.65,8.65,0,0,0,6.63-3h0l.15.12.14.09.08.05.07,0a9.34,9.34,0,0,0,.87.5l5.36,2.76Z" transform="translate(-19.1 -15.92)"/><path class="cls-4" d="M45.85,43.7a8.65,8.65,0,0,1-6.64,3h-.08a8.65,8.65,0,0,1-6.64-3l.16-.13a6.38,6.38,0,0,0,2.23-2.94,3.9,3.9,0,0,0,.2-2l3.59-1.78v-.48l.5.24.49-.24v.48l3.59,1.78a3.94,3.94,0,0,0,.2,2,6.36,6.36,0,0,0,2.23,2.93A1.09,1.09,0,0,0,45.85,43.7Z" transform="translate(-19.1 -15.92)"/><path class="cls-5" d="M43.45,40.64a6.1,6.1,0,0,1-4.25,1.64h-.06a6.09,6.09,0,0,1-4.26-1.65,3.9,3.9,0,0,0,.2-2l3.59-1.78v-.48l.5.24.49-.24v.48l3.59,1.78A3.94,3.94,0,0,0,43.45,40.64Z" transform="translate(-19.1 -15.92)"/><path class="cls-4" d="M45.38,25.86c-1.2-3.32-4.8-3.74-6-3.79H39c-1.24.05-4.83.47-6,3.79a11.27,11.27,0,0,0-.17,5c.06.35.27,2.65.37,3l0,0c.6,3.81,2.57,6.59,6,6.62h.05c3.78,0,5.79-3.4,6.14-7.8.08-.77.17-1.63.21-1.84A11.27,11.27,0,0,0,45.38,25.86Z" transform="translate(-19.1 -15.92)"/><path class="cls-6" d="M45.68,30.18a5.84,5.84,0,0,0-.74-2.07,4.61,4.61,0,0,1-5,.05c-1.23-.63-2.45-1.76-3.91-1.69-2.58.12-3,3.46-3,3.46l-.23.78a9.94,9.94,0,0,1,.2-4.85c1.2-3.32,4.79-3.74,6-3.79h.42c1.24.05,4.84.47,6,3.79A9.55,9.55,0,0,1,45.68,30.18Z" transform="translate(-19.1 -15.92)"/><path class="cls-7" d="M46.29,44a9.35,9.35,0,0,1-6.79,3.05h-.65A9.34,9.34,0,0,1,32.05,44a5,5,0,0,0,.47-.33,8.85,8.85,0,0,0,6.61,2.83h.09a8.87,8.87,0,0,0,6.59-2.81Z" transform="translate(-19.1 -15.92)"/><path class="cls-4" d="M32.86,30.65s-.95-.89-.94.43a2.82,2.82,0,0,0,.23,1.07,6.06,6.06,0,0,1,.47,1.93,1.22,1.22,0,0,0,.2.59c.17.24.44.4.73-.28Z" transform="translate(-19.1 -15.92)"/><path class="cls-4" d="M45.4,30.65s1-.89.94.43a2.65,2.65,0,0,1-.24,1.07,6.06,6.06,0,0,0-.47,1.93,1.12,1.12,0,0,1-.19.59c-.18.24-.45.4-.73-.28Z" transform="translate(-19.1 -15.92)"/><circle class="cls-8" cx="23.2" cy="16.96" r="16.14"/></svg>