<svg id="Layer_1" data-name="Layer 1" xmlns="http://www.w3.org/2000/svg" xmlns:xlink="http://www.w3.org/1999/xlink" viewBox="0 0 81.39 53.2"><defs><style>.cls-1{fill:url(#linear-gradient);}.cls-2{fill:url(#linear-gradient-2);}.cls-3{fill:url(#linear-gradient-3);}.cls-4{fill:url(#radial-gradient);}.cls-5{fill:url(#linear-gradient-4);}.cls-10,.cls-11,.cls-6,.cls-8,.cls-9{opacity:0.46;}.cls-6{fill:url(#linear-gradient-5);}.cls-7{fill:url(#linear-gradient-6);}.cls-8{fill:url(#linear-gradient-7);}.cls-9{fill:url(#linear-gradient-8);}.cls-10{fill:url(#linear-gradient-9);}.cls-11{fill:url(#linear-gradient-10);}.cls-12{fill:url(#linear-gradient-11);}.cls-13{fill:url(#linear-gradient-12);}.cls-14{fill:url(#linear-gradient-13);}.cls-15{fill:url(#linear-gradient-14);}.cls-16{fill:url(#linear-gradient-15);}</style><linearGradient id="linear-gradient" x1="14.49" y1="38" x2="95.87" y2="38" gradientUnits="userSpaceOnUse"><stop offset="0" stop-color="#494b59"/><stop offset="1" stop-color="#2d2f3d"/></linearGradient><linearGradient id="linear-gradient-2" x1="14.49" y1="16.17" x2="95.87" y2="16.17" gradientUnits="userSpaceOnUse"><stop offset="0" stop-color="#2d2f3d"/><stop offset="1" stop-color="#262732"/></linearGradient><linearGradient id="linear-gradient-3" x1="4.62" y1="4.82" x2="8.26" y2="4.82" gradientUnits="userSpaceOnUse"><stop offset="0" stop-color="#f04f48"/><stop offset="1" stop-color="#a0489e"/></linearGradient><radialGradient id="radial-gradient" cx="12.12" cy="4.82" r="1.82" gradientUnits="userSpaceOnUse"><stop offset="0" stop-color="#f7941d"/><stop offset="1" stop-color="#ff5037"/></radialGradient><linearGradient id="linear-gradient-4" x1="15.99" y1="4.82" x2="19.62" y2="4.82" gradientUnits="userSpaceOnUse"><stop offset="0.74" stop-color="#85d62f"/><stop offset="1" stop-color="#88ff90"/></linearGradient><linearGradient id="linear-gradient-5" x1="14.79" y1="14.73" x2="14.79" y2="45.75" xlink:href="#linear-gradient-2"/><linearGradient id="linear-gradient-6" x1="2221.55" y1="12720.53" x2="2221.55" y2="12730.68" gradientTransform="translate(-2192.27 -12673.62)" gradientUnits="userSpaceOnUse"><stop offset="0" stop-color="#85d62f" stop-opacity="0.3"/><stop offset="1" stop-color="#88ff90"/></linearGradient><linearGradient id="linear-gradient-7" x1="27.22" y1="14.73" x2="27.22" y2="45.75" xlink:href="#linear-gradient-2"/><linearGradient id="linear-gradient-8" x1="39.65" y1="14.73" x2="39.65" y2="45.75" xlink:href="#linear-gradient-2"/><linearGradient id="linear-gradient-9" x1="52.08" y1="14.73" x2="52.08" y2="45.75" xlink:href="#linear-gradient-2"/><linearGradient id="linear-gradient-10" x1="64.51" y1="14.73" x2="64.51" y2="45.75" xlink:href="#linear-gradient-2"/><linearGradient id="linear-gradient-11" x1="2209.27" y1="12720.53" x2="2209.27" y2="12730.68" gradientTransform="translate(-2167.72 -12673.62)" xlink:href="#linear-gradient-6"/><linearGradient id="linear-gradient-12" x1="2196.65" y1="12720.19" x2="2196.65" y2="12734.22" gradientTransform="translate(-2142.48 -12677.15)" xlink:href="#linear-gradient-6"/><linearGradient id="linear-gradient-13" x1="2184.04" y1="12719.68" x2="2184.04" y2="12739.59" gradientTransform="translate(-2117.24 -12682.49)" xlink:href="#linear-gradient-6"/><linearGradient id="linear-gradient-14" x1="2172.1" y1="12719.09" x2="2172.1" y2="12745.88" gradientTransform="translate(-2093.37 -12688.74)" xlink:href="#linear-gradient-6"/><linearGradient id="linear-gradient-15" x1="34.3" y1="45.36" x2="63.4" y2="23.84" gradientUnits="userSpaceOnUse"><stop offset="0" stop-color="#39b54a" stop-opacity="0.3"/><stop offset="1" stop-color="#88ff90"/></linearGradient></defs><path class="cls-1" d="M95.87,17.31V58.69A5.91,5.91,0,0,1,90,64.61H20.39a5.91,5.91,0,0,1-5.9-5.92V17.31a5.91,5.91,0,0,1,5.9-5.91H90A5.92,5.92,0,0,1,95.87,17.31Z" transform="translate(-14.49 -11.4)"/><path class="cls-2" d="M95.87,17.31v3.63H14.49V17.31a5.91,5.91,0,0,1,5.9-5.91H90A5.92,5.92,0,0,1,95.87,17.31Z" transform="translate(-14.49 -11.4)"/><circle class="cls-3" cx="6.44" cy="4.82" r="1.82"/><circle class="cls-4" cx="12.12" cy="4.82" r="1.82"/><circle class="cls-5" cx="17.81" cy="4.82" r="1.82"/><rect class="cls-6" x="11.16" y="17.41" width="7.28" height="28.19"/><rect class="cls-7" x="25.64" y="47.78" width="7.28" height="9.23" transform="translate(44.07 93.39) rotate(180)"/><rect class="cls-8" x="23.58" y="17.41" width="7.28" height="28.19"/><rect class="cls-9" x="36.01" y="17.41" width="7.28" height="28.19"/><rect class="cls-10" x="48.44" y="17.41" width="7.28" height="28.19"/><rect class="cls-11" x="60.87" y="17.41" width="7.28" height="28.19"/><rect class="cls-12" x="37.92" y="47.78" width="7.28" height="9.23" transform="translate(68.63 93.39) rotate(180)"/><rect class="cls-13" x="50.54" y="44.26" width="7.28" height="12.75" transform="translate(93.86 89.86) rotate(180)"/><rect class="cls-14" x="63.15" y="38.91" width="7.28" height="18.09" transform="translate(119.1 84.52) rotate(180)"/><rect class="cls-15" x="75.09" y="32.66" width="7.28" height="24.35" transform="translate(142.97 78.27) rotate(180)"/><path class="cls-16" d="M52.7,27.56l8.13-3.47L62.6,33l-2.82-1.49s-9.6,11.94-30.52,9c0,0,17.51,1.13,26-11.49Z" transform="translate(-14.49 -11.4)"/></svg>