<svg id="Layer_1" data-name="Layer 1" xmlns="http://www.w3.org/2000/svg" xmlns:xlink="http://www.w3.org/1999/xlink" viewBox="0 0 54.57 79.06"><defs><style>.cls-1{fill:url(#linear-gradient);}.cls-2{fill:url(#linear-gradient-2);}.cls-3{fill:url(#linear-gradient-3);}.cls-4{fill:url(#linear-gradient-4);}.cls-5{fill:url(#linear-gradient-5);}.cls-6{fill:url(#linear-gradient-6);}.cls-7{fill:url(#linear-gradient-7);}.cls-8{fill:url(#linear-gradient-8);}</style><linearGradient id="linear-gradient" x1="101.27" y1="-112.99" x2="-15.86" y2="128.6" gradientUnits="userSpaceOnUse"><stop offset="0" stop-color="#494b59"/><stop offset="1" stop-color="#525463"/></linearGradient><linearGradient id="linear-gradient-2" x1="222.68" y1="249.9" x2="277.25" y2="249.9" gradientUnits="userSpaceOnUse"><stop offset="0" stop-color="#3e404e"/><stop offset="1" stop-color="#2d2f3d"/></linearGradient><linearGradient id="linear-gradient-3" x1="235.46" y1="242.66" x2="264.73" y2="242.66" xlink:href="#linear-gradient-2"/><linearGradient id="linear-gradient-4" x1="235.23" y1="264.96" x2="264.27" y2="264.96" xlink:href="#linear-gradient-2"/><linearGradient id="linear-gradient-5" x1="235.23" y1="272.11" x2="264.27" y2="272.11" xlink:href="#linear-gradient-2"/><linearGradient id="linear-gradient-6" x1="235.23" y1="279.26" x2="264.27" y2="279.26" xlink:href="#linear-gradient-2"/><linearGradient id="linear-gradient-7" x1="21.91" y1="29.5" x2="32.91" y2="29.5" gradientUnits="userSpaceOnUse"><stop offset="0" stop-color="#f7941d"/><stop offset="1" stop-color="#ff5037"/></linearGradient><linearGradient id="linear-gradient-8" x1="239.73" y1="251.95" x2="260.47" y2="251.95" xlink:href="#linear-gradient-7"/></defs><rect class="cls-1" x="2.04" y="2" width="50.57" height="75.06" rx="8.3"/><path class="cls-2" d="M266.94,210.37H233a10.31,10.31,0,0,0-10.3,10.3v58.46a10.31,10.31,0,0,0,10.3,10.3h34a10.32,10.32,0,0,0,10.31-10.3V220.67A10.32,10.32,0,0,0,266.94,210.37Zm6.31,68.76a6.31,6.31,0,0,1-6.31,6.3H233a6.31,6.31,0,0,1-6.3-6.3V220.67a6.31,6.31,0,0,1,6.3-6.3h5.37v3.1a3.06,3.06,0,0,0,3.06,3.06h17.11a3.06,3.06,0,0,0,3.06-3.06v-3.1h5.36a6.31,6.31,0,0,1,6.31,6.3Z" transform="translate(-222.68 -210.37)"/><path class="cls-3" d="M264.73,242.66A14.5,14.5,0,0,1,260.47,253c-.25.25-.5.49-.77.72a14.58,14.58,0,0,1-19.21,0,10.29,10.29,0,0,1-.76-.72,14.47,14.47,0,0,1-4.27-10.31,14.64,14.64,0,1,1,29.27,0Z" transform="translate(-222.68 -210.37)"/><path class="cls-4" d="M262.77,266.46h-26a1.5,1.5,0,1,1,0-3h26a1.5,1.5,0,0,1,0,3Z" transform="translate(-222.68 -210.37)"/><path class="cls-5" d="M262.77,273.61h-26a1.5,1.5,0,0,1,0-3h26a1.5,1.5,0,0,1,0,3Z" transform="translate(-222.68 -210.37)"/><path class="cls-6" d="M262.77,280.76h-26a1.5,1.5,0,0,1,0-3h26a1.5,1.5,0,0,1,0,3Z" transform="translate(-222.68 -210.37)"/><circle class="cls-7" cx="27.41" cy="29.5" r="5.5"/><path class="cls-8" d="M260.47,253c-.25.25-.5.49-.77.72a14.58,14.58,0,0,1-19.21,0,10.29,10.29,0,0,1-.76-.72,11.62,11.62,0,0,1,20.74,0Z" transform="translate(-222.68 -210.37)"/></svg>